<svg version="1.1" id="Layer_1" xmlns="http://www.w3.org/2000/svg" xmlns:xlink="http://www.w3.org/1999/xlink" x="0px" y="0px"
	 width="100%" viewBox="0 0 1024 300" enable-background="new 0 0 1024 300" xml:space="preserve">
<path fill="#000000" opacity="1.000000" stroke="none" 
	d="
M745.000000,301.000000 
	C496.666748,301.000000 248.833511,301.000000 1.000200,301.000000 
	C1.000133,201.000122 1.000133,101.000252 1.000067,1.000280 
	C342.333099,1.000187 683.666199,1.000187 1024.999512,1.000093 
	C1024.999634,100.999718 1024.999634,200.999435 1024.999756,300.999573 
	C931.833313,301.000000 838.666687,301.000000 745.000000,301.000000 
M691.567444,104.405708 
	C691.044983,103.269966 690.522522,102.134216 689.066345,100.991608 
	C685.736084,101.002815 682.404785,101.070419 679.075867,101.009926 
	C675.490173,100.944786 673.955933,102.672203 673.991150,106.197662 
	C674.187378,125.837486 674.371521,145.477722 674.421753,165.118179 
	C674.425659,166.664307 673.377014,168.213135 672.817566,169.760712 
	C671.656982,168.754684 670.182617,167.951218 669.382935,166.712280 
	C657.015320,147.550262 644.439636,128.511383 632.601379,109.025246 
	C628.650391,102.521690 624.086365,100.147629 616.803101,100.876945 
	C610.650269,101.493065 610.017273,101.625648 610.003967,107.952484 
	C609.966980,125.603691 609.983643,143.255005 609.983032,160.906281 
	C609.982666,172.229736 609.888489,183.554977 610.090698,194.874878 
	C610.124695,196.778290 610.911194,199.618622 612.274536,200.388260 
	C619.269592,204.337006 626.069519,200.104050 626.024170,192.128815 
	C625.920959,173.982773 625.755310,155.837036 625.694641,137.690903 
	C625.691406,136.718353 626.243469,135.091568 626.850769,134.926987 
	C627.696533,134.697784 629.006836,135.356964 629.808472,136.013992 
	C630.675781,136.724884 631.219055,137.849823 631.848450,138.829636 
	C642.644958,155.637512 653.908325,172.171387 664.024719,189.379410 
	C669.187561,198.161407 675.122742,202.984619 685.495422,201.052917 
	C686.943970,200.783142 688.485840,201.014572 690.365784,200.708313 
	C690.609436,200.489700 690.826233,200.247025 691.022949,199.236588 
	C691.016785,198.492859 691.010620,197.749115 691.018250,196.066956 
	C691.026123,170.344696 691.011292,144.622360 691.076294,118.900238 
	C691.082947,116.275513 691.568726,113.652000 691.918457,111.958252 
	C691.918457,125.507286 691.918457,139.056320 691.918457,152.605347 
	C692.182434,152.602844 692.446411,152.600342 692.710388,152.597824 
	C692.710388,135.274902 692.710388,117.951988 692.710388,100.629066 
	C692.518188,100.621918 692.325928,100.614777 692.133728,100.607628 
	C692.034729,102.062614 691.935791,103.517601 691.567444,104.405708 
M720.757141,170.322113 
	C725.398071,170.552383 730.037659,170.939499 734.680298,170.981445 
	C745.566833,171.079803 756.454895,171.012909 767.342346,171.012909 
	C767.340088,170.681381 767.337830,170.349854 767.335571,170.018326 
	C751.550903,170.018326 735.766174,170.018326 720.741760,169.694855 
	C723.047852,169.477188 725.352905,169.085434 727.660278,169.071014 
	C739.811462,168.995026 751.963196,168.986191 764.114624,169.018646 
	C767.505371,169.027695 769.931763,168.336945 770.058838,164.170639 
	C770.492859,149.943405 761.765625,130.340530 741.505310,128.305099 
	C728.766418,127.025307 717.867065,130.719147 710.406372,141.891724 
	C705.343262,149.473816 702.946777,158.004288 703.136414,166.939453 
	C703.347412,176.875366 705.637329,186.454468 713.020142,193.866409 
	C722.397217,203.280457 733.962280,204.642120 746.248413,201.993759 
	C755.035645,200.099609 762.233643,195.412109 767.053345,187.640411 
	C769.466431,183.749329 768.567566,182.345718 764.003784,182.031937 
	C758.993591,181.687485 754.722839,182.671738 750.826721,186.441040 
	C745.286926,191.800461 738.218567,192.176392 731.197693,189.928207 
	C723.555420,187.480988 720.026978,181.358841 718.655518,173.888077 
	C718.439453,172.710999 719.521240,171.295654 720.757141,170.322113 
M591.059143,129.970932 
	C586.148865,130.536789 579.957153,127.580887 577.685120,135.576508 
	C575.432800,134.279129 573.560425,133.294754 571.782898,132.161545 
	C559.594238,124.390762 542.112732,127.322800 533.638855,138.897446 
	C525.846985,149.540604 525.249023,161.657822 527.000732,174.234375 
	C530.209473,197.270996 553.977417,207.507538 572.801025,193.876907 
	C573.551880,193.333176 574.523926,193.094711 575.373901,192.722336 
	C579.533142,200.595581 575.867249,212.145386 568.326111,215.591248 
	C561.861938,218.544998 549.790039,217.198074 547.545837,212.226852 
	C544.416199,205.294128 539.096924,205.828186 533.397949,206.008286 
	C530.071228,206.113403 529.036011,207.694534 529.715698,210.889755 
	C531.156616,217.664154 534.735291,222.828049 540.930908,225.982788 
	C552.046631,231.642792 563.537354,230.621368 575.025146,227.471420 
	C585.424561,224.619888 591.313049,217.610184 593.027527,206.072083 
	C593.038574,183.138458 593.081970,160.204742 593.013184,137.271347 
	C593.005920,134.837128 592.341248,132.404861 591.059143,129.970932 
M69.052147,222.372116 
	C70.134651,223.143234 71.216675,223.915054 72.299736,224.685394 
	C99.433937,243.984573 128.512421,250.218140 159.953857,236.636444 
	C167.960144,233.177979 175.412643,228.102570 182.461166,222.881271 
	C187.051453,219.480957 190.310242,214.332947 194.418991,210.221146 
	C200.558533,204.077042 207.183090,198.400940 213.110504,192.066467 
	C218.349884,186.467285 222.995789,180.301315 227.750671,174.265045 
	C230.174179,171.188400 232.280609,170.616806 234.821411,174.051971 
	C237.076935,177.101440 239.258041,180.266357 241.905060,182.953766 
	C248.168304,189.312637 254.739639,195.366928 261.073883,201.657684 
	C262.914825,203.485962 264.278229,205.785492 266.030579,207.714569 
	C269.567993,211.608688 273.829590,214.998489 276.671051,219.331680 
	C280.073792,224.520813 284.118835,227.839020 290.315399,227.922073 
	C300.811493,228.062775 311.310822,227.987549 321.808472,227.942673 
	C322.699188,227.938858 323.587921,227.481110 324.930359,227.108597 
	C323.737549,224.972778 323.100739,222.920517 321.746368,221.609512 
	C319.395203,219.333618 316.330963,217.781845 314.039368,215.459167 
	C305.313019,206.614441 296.979126,197.375916 288.114685,188.675690 
	C277.931030,178.680710 267.263336,169.180389 256.987396,159.276840 
	C254.778366,157.147858 252.972076,154.365112 251.822891,151.540695 
	C251.540894,150.847595 254.661804,148.887268 256.068207,147.370407 
	C263.946259,138.873566 271.720673,130.279968 279.653137,121.834572 
	C283.049347,118.218742 286.676453,114.810776 290.313293,111.431778 
	C298.072144,104.222984 305.937378,97.128716 313.695190,89.918861 
	C317.438538,86.439957 321.037445,82.805664 325.623322,78.345413 
	C310.137939,78.345413 296.191193,78.153641 282.258362,78.508919 
	C279.506653,78.579079 276.179718,80.118095 274.199280,82.074318 
	C267.200897,88.987144 260.272980,96.050354 254.069901,103.668518 
	C246.957901,112.403008 237.087189,118.433670 231.009476,128.180298 
	C229.261520,130.983444 225.583252,132.504242 223.298431,135.066360 
	C217.062973,142.058609 211.101257,149.294891 205.020172,156.425186 
	C204.699265,156.801437 204.258240,157.072357 203.905777,157.424973 
	C199.664780,161.667908 195.220840,165.731537 191.246887,170.211838 
	C186.372864,175.706894 182.339508,182.005768 177.128082,187.128387 
	C170.867020,193.282745 164.040466,198.967285 156.930099,204.126678 
	C146.964951,211.357513 135.457596,214.799286 123.155296,214.764404 
	C103.885956,214.709763 89.716278,204.063538 77.779922,190.630585 
	C67.459198,179.015854 64.706772,164.190308 65.285988,148.991867 
	C66.062393,128.619553 76.798264,113.389595 92.156250,101.274338 
	C108.705139,88.219635 127.491661,83.958717 148.147263,89.374039 
	C161.991455,93.003609 172.660706,101.107048 181.396301,112.284264 
	C184.076462,115.713547 188.167084,118.002373 191.226990,121.183609 
	C194.310760,124.389702 196.752655,128.213440 199.838959,131.416641 
	C200.677338,132.286774 203.405243,132.636597 204.281067,131.956650 
	C209.463272,127.933517 214.527191,123.712242 219.210205,119.127892 
	C220.233276,118.126396 220.427475,114.611320 219.508850,113.560753 
	C213.018784,106.138756 206.201385,98.997536 199.363632,91.886749 
	C193.688034,85.984505 188.668655,79.376442 181.108658,75.496094 
	C175.059799,72.391380 169.550613,67.848969 163.203827,65.774422 
	C125.267044,53.374138 91.485001,61.324631 62.847553,88.837326 
	C41.227440,109.608292 32.700024,135.508728 37.098972,165.260300 
	C40.459789,187.990631 51.427170,206.736404 69.052147,222.372116 
M432.148132,184.624695 
	C433.690033,180.245865 435.513306,175.935837 436.610626,171.448303 
	C436.961945,170.011749 435.858215,167.209778 434.621918,166.566360 
	C428.719574,163.494446 420.750854,166.693832 418.042389,172.788300 
	C413.009430,184.113297 403.977295,189.166824 391.682861,188.106949 
	C380.313049,187.126770 373.705627,179.517792 368.702667,170.857086 
	C360.867035,157.292603 362.402588,142.829971 369.733002,129.792557 
	C372.980164,124.017303 379.334991,118.722664 385.506226,116.123802 
	C398.061493,110.836456 409.662689,115.905556 416.335388,127.935722 
	C418.396576,131.651764 420.904938,133.368759 425.066284,133.055023 
	C427.552704,132.867569 430.063019,133.015793 432.561707,132.967987 
	C436.076477,132.900757 437.435913,130.991150 436.569427,127.718231 
	C434.043915,118.178856 428.594482,110.006004 420.382202,105.247643 
	C403.918854,95.708458 386.657288,97.455002 370.116180,105.681252 
	C365.334229,108.059425 360.543152,111.682945 357.443848,115.958755 
	C345.063171,133.039352 342.713257,152.083862 349.100006,172.016876 
	C352.779541,183.500732 359.914215,192.622925 371.003784,197.960541 
	C386.522675,205.430054 402.210083,205.197037 417.823181,198.096664 
	C423.849640,195.356018 429.156891,191.755402 432.148132,184.624695 
M485.006500,128.316071 
	C469.313965,126.811760 455.173920,134.456253 449.721344,148.029373 
	C447.831146,152.734680 446.904327,157.942871 446.269897,163.013016 
	C444.879425,174.124817 448.613983,184.223068 454.788177,193.032135 
	C457.174713,196.437103 462.260437,198.221970 466.417023,200.068268 
	C486.073425,208.799423 508.004822,199.631516 514.775757,179.972397 
	C515.690186,177.317337 516.459839,174.504166 516.637573,171.722107 
	C517.468445,158.716156 515.191895,146.556656 505.684875,136.807266 
	C500.306305,131.291595 493.165436,129.619797 485.006500,128.316071 
M978.791565,198.428574 
	C986.571228,193.893539 990.484863,187.275116 989.678040,178.141388 
	C988.813416,168.352783 982.432556,163.613647 973.797607,161.154343 
	C969.160034,159.833542 964.387634,158.993652 959.718811,157.773026 
	C955.879456,156.769226 951.759827,156.137497 948.377441,154.245163 
	C943.000977,151.237167 943.101440,145.207230 948.048523,142.152939 
	C955.234070,137.716644 966.028320,140.079544 970.764832,146.984955 
	C971.481628,148.030014 972.860657,149.185440 974.003479,149.263687 
	C976.973511,149.466949 980.096069,149.529221 982.929688,148.782318 
	C984.406921,148.392960 986.659241,145.818909 986.383911,144.851242 
	C985.503296,141.756058 984.276245,138.196014 981.987244,136.159134 
	C969.870850,125.377525 947.106873,125.195374 934.538025,135.350830 
	C923.359497,144.382965 925.903687,162.112946 939.289551,167.129196 
	C944.091797,168.928818 949.279968,169.675552 954.245239,171.069565 
	C959.191284,172.458191 964.303955,173.566757 968.929077,175.697876 
	C973.675598,177.884964 974.161865,183.922104 970.500488,187.446762 
	C965.220459,192.529694 952.562195,192.290833 947.655518,186.815109 
	C943.490967,182.167633 939.064514,179.005127 932.229065,179.876389 
	C927.792053,180.441956 926.772827,182.062088 927.999939,186.024918 
	C930.307678,193.477859 935.391357,198.324219 942.587402,200.619476 
	C954.585144,204.446320 966.538208,204.240082 978.791565,198.428574 
M913.781799,130.461853 
	C908.992676,130.461853 904.203491,130.461853 899.816345,130.461853 
	C900.342163,133.285797 900.904114,134.935593 900.915955,136.589310 
	C900.994507,147.583450 901.026245,158.579208 900.905518,169.572601 
	C900.874695,172.378540 900.668457,175.318893 899.801392,177.953476 
	C897.289856,185.585327 889.254395,192.793457 879.769592,188.813461 
	C873.709412,186.270477 870.419373,181.966507 869.388550,175.845428 
	C868.617676,171.267242 868.199829,166.591385 868.091370,161.948135 
	C867.889099,153.290283 868.130737,144.622162 867.937012,135.963928 
	C867.896790,134.164658 866.982971,130.985016 866.100037,130.848679 
	C862.423828,130.281006 858.476135,130.099503 854.915771,130.962845 
	C853.802429,131.232788 853.108826,135.218628 853.051147,137.524246 
	C852.751526,149.507706 852.338501,161.511124 852.755066,173.480087 
	C852.963501,179.469040 853.604675,186.028885 856.224915,191.236145 
	C863.560852,205.814835 886.533752,207.554840 896.934387,194.968231 
	C897.591003,194.173553 899.053589,193.049240 899.508789,193.287354 
	C900.508606,193.810318 901.432373,194.997818 901.805725,196.109329 
	C903.400024,200.855652 905.221985,201.681519 911.810242,200.996567 
	C916.213074,200.538849 916.012146,197.485443 916.014343,194.444656 
	C916.028442,175.120667 916.059692,155.796432 915.951721,136.473038 
	C915.941345,134.608826 915.018066,132.749725 913.781799,130.461853 
M819.763550,192.744904 
	C824.738647,201.148636 833.591980,203.912750 842.222473,199.374832 
	C841.337891,197.665039 840.648254,195.803696 839.527893,194.253799 
	C833.094849,185.354721 826.385986,176.647781 820.210754,167.576065 
	C819.021912,165.829681 818.769714,162.112625 819.839539,160.401367 
	C823.697693,154.230087 828.365051,148.570007 832.608093,142.632050 
	C835.239624,138.949310 837.656921,135.113480 841.095581,129.959778 
	C835.812561,129.959778 832.214600,130.147827 828.644958,129.910492 
	C824.509094,129.635529 821.714600,131.096085 819.732056,134.823715 
	C817.311462,139.374908 814.555725,143.754395 811.815613,148.127090 
	C809.377808,152.017380 807.807190,152.071930 805.313721,148.208557 
	C802.245667,143.455017 799.486633,138.502686 796.455750,133.723953 
	C795.620178,132.406525 794.355286,130.492188 793.178711,130.410141 
	C787.978394,130.047546 782.738464,130.253311 776.341309,130.253311 
	C777.840637,132.821579 778.628601,134.391129 779.615234,135.823898 
	C784.337036,142.681122 789.171448,149.461365 793.850037,156.347626 
	C797.347595,161.495605 798.553894,165.924759 794.043152,171.661102 
	C788.186096,179.109589 783.071594,187.144974 777.708374,194.976318 
	C776.658020,196.510147 775.930969,198.265396 774.482483,200.998215 
	C779.128601,200.998215 782.588013,200.800125 786.015198,201.048325 
	C790.305786,201.359055 793.235229,199.898727 795.429688,196.057968 
	C798.066956,191.442276 801.127625,187.052536 804.214600,182.714081 
	C807.503418,178.091888 809.773682,178.087814 813.008057,182.574860 
	C815.244690,185.677826 817.263916,188.937546 819.763550,192.744904 
M594.856445,171.499756 
	C594.856445,157.416519 594.856445,143.333282 594.856445,129.250046 
	C594.666321,129.251846 594.476257,129.253632 594.286133,129.255432 
	C594.286133,153.813858 594.286133,178.372284 594.286133,202.930695 
	C594.474121,202.930695 594.662048,202.930695 594.850037,202.930679 
	C594.850037,192.787048 594.850037,182.643417 594.856445,171.499756 
M298.607452,228.948822 
	C296.002441,228.948822 293.397430,228.948822 290.792419,228.948822 
	C290.813812,229.190430 290.835236,229.432037 290.856659,229.673645 
	C303.027863,229.673645 315.199097,229.673645 327.370331,229.673645 
	C327.367218,229.431396 327.364105,229.189163 327.360962,228.946915 
	C318.098602,228.946915 308.836273,228.946915 298.607452,228.948822 
M852.081421,154.384583 
	C852.081421,147.087479 852.081421,139.790390 852.081421,132.493286 
	C851.796082,132.502121 851.510742,132.510956 851.225403,132.519791 
	C851.225403,142.406982 851.225403,152.294174 851.225403,162.181366 
	C851.507690,162.181580 851.789978,162.181808 852.072266,162.182022 
	C852.072266,159.897369 852.072266,157.612701 852.081421,154.384583 
z"/>
<path fill="#101010" opacity="1.000000" stroke="none" 
	d="
M68.728119,222.219940 
	C51.427170,206.736404 40.459789,187.990631 37.098972,165.260300 
	C32.700024,135.508728 41.227440,109.608292 62.847553,88.837326 
	C91.485001,61.324631 125.267044,53.374138 163.203827,65.774422 
	C169.550613,67.848969 175.059799,72.391380 181.108658,75.496094 
	C188.668655,79.376442 193.688034,85.984505 199.363632,91.886749 
	C206.201385,98.997536 213.018784,106.138756 219.508850,113.560753 
	C220.427475,114.611320 220.233276,118.126396 219.210205,119.127892 
	C214.527191,123.712242 209.463272,127.933517 204.281067,131.956650 
	C203.405243,132.636597 200.677338,132.286774 199.838959,131.416641 
	C196.752655,128.213440 194.310760,124.389702 191.226990,121.183609 
	C188.167084,118.002373 184.076462,115.713547 181.396301,112.284264 
	C172.660706,101.107048 161.991455,93.003609 148.147263,89.374039 
	C127.491661,83.958717 108.705139,88.219635 92.156250,101.274338 
	C76.798264,113.389595 66.062393,128.619553 65.285988,148.991867 
	C64.706772,164.190308 67.459198,179.015854 77.779922,190.630585 
	C89.716278,204.063538 103.885956,214.709763 123.155296,214.764404 
	C135.457596,214.799286 146.964951,211.357513 156.930099,204.126678 
	C164.040466,198.967285 170.867020,193.282745 177.128082,187.128387 
	C182.339508,182.005768 186.372864,175.706894 191.246887,170.211838 
	C195.220840,165.731537 199.664780,161.667908 203.905777,157.424973 
	C204.258240,157.072357 204.699265,156.801437 205.020172,156.425186 
	C211.101257,149.294891 217.062973,142.058609 223.298431,135.066360 
	C225.583252,132.504242 229.261520,130.983444 231.009476,128.180298 
	C237.087189,118.433670 246.957901,112.403008 254.069901,103.668518 
	C260.272980,96.050354 267.200897,88.987144 274.199280,82.074318 
	C276.179718,80.118095 279.506653,78.579079 282.258362,78.508919 
	C296.191193,78.153641 310.137939,78.345413 325.623322,78.345413 
	C321.037445,82.805664 317.438538,86.439957 313.695190,89.918861 
	C305.937378,97.128716 298.072144,104.222984 290.313293,111.431778 
	C286.676453,114.810776 283.049347,118.218742 279.653137,121.834572 
	C271.720673,130.279968 263.946259,138.873566 256.068207,147.370407 
	C254.661804,148.887268 251.540894,150.847595 251.822891,151.540695 
	C252.972076,154.365112 254.778366,157.147858 256.987396,159.276840 
	C267.263336,169.180389 277.931030,178.680710 288.114685,188.675690 
	C296.979126,197.375916 305.313019,206.614441 314.039368,215.459167 
	C316.330963,217.781845 319.395203,219.333618 321.746368,221.609512 
	C323.100739,222.920517 323.737549,224.972778 324.930359,227.108597 
	C323.587921,227.481110 322.699188,227.938858 321.808472,227.942673 
	C311.310822,227.987549 300.811493,228.062775 290.315399,227.922073 
	C284.118835,227.839020 280.073792,224.520813 276.671051,219.331680 
	C273.829590,214.998489 269.567993,211.608688 266.030579,207.714569 
	C264.278229,205.785492 262.914825,203.485962 261.073883,201.657684 
	C254.739639,195.366928 248.168304,189.312637 241.905060,182.953766 
	C239.258041,180.266357 237.076935,177.101440 234.821411,174.051971 
	C232.280609,170.616806 230.174179,171.188400 227.750671,174.265045 
	C222.995789,180.301315 218.349884,186.467285 213.110504,192.066467 
	C207.183090,198.400940 200.558533,204.077042 194.418991,210.221146 
	C190.310242,214.332947 187.051453,219.480957 182.461166,222.881271 
	C175.412643,228.102570 167.960144,233.177979 159.953857,236.636444 
	C128.512421,250.218140 99.433937,243.984573 72.299736,224.685394 
	C71.216675,223.915054 70.134651,223.143234 68.728119,222.219940 
z"/>
<path fill="#101010" opacity="1.000000" stroke="none" 
	d="
M691.004456,197.005386 
	C691.010620,197.749115 691.016785,198.492859 690.843140,199.776550 
	C690.431091,200.543137 690.204834,200.775650 689.984558,201.014008 
	C688.485840,201.014572 686.943970,200.783142 685.495422,201.052917 
	C675.122742,202.984619 669.187561,198.161407 664.024719,189.379410 
	C653.908325,172.171387 642.644958,155.637512 631.848450,138.829636 
	C631.219055,137.849823 630.675781,136.724884 629.808472,136.013992 
	C629.006836,135.356964 627.696533,134.697784 626.850769,134.926987 
	C626.243469,135.091568 625.691406,136.718353 625.694641,137.690903 
	C625.755310,155.837036 625.920959,173.982773 626.024170,192.128815 
	C626.069519,200.104050 619.269592,204.337006 612.274536,200.388260 
	C610.911194,199.618622 610.124695,196.778290 610.090698,194.874878 
	C609.888489,183.554977 609.982666,172.229736 609.983032,160.906281 
	C609.983643,143.255005 609.966980,125.603691 610.003967,107.952484 
	C610.017273,101.625648 610.650269,101.493065 616.803101,100.876945 
	C624.086365,100.147629 628.650391,102.521690 632.601379,109.025246 
	C644.439636,128.511383 657.015320,147.550262 669.382935,166.712280 
	C670.182617,167.951218 671.656982,168.754684 672.817566,169.760712 
	C673.377014,168.213135 674.425659,166.664307 674.421753,165.118179 
	C674.371521,145.477722 674.187378,125.837486 673.991150,106.197662 
	C673.955933,102.672203 675.490173,100.944786 679.075867,101.009926 
	C682.404785,101.070419 685.736084,101.002815 689.533203,101.463860 
	C690.000122,131.013824 689.974609,160.091614 690.043945,189.169159 
	C690.050171,191.781998 690.669739,194.393341 691.004456,197.005386 
z"/>
<path fill="#101010" opacity="1.000000" stroke="none" 
	d="
M431.968018,184.951752 
	C429.156891,191.755402 423.849640,195.356018 417.823181,198.096664 
	C402.210083,205.197037 386.522675,205.430054 371.003784,197.960541 
	C359.914215,192.622925 352.779541,183.500732 349.100006,172.016876 
	C342.713257,152.083862 345.063171,133.039352 357.443848,115.958755 
	C360.543152,111.682945 365.334229,108.059425 370.116180,105.681252 
	C386.657288,97.455002 403.918854,95.708458 420.382202,105.247643 
	C428.594482,110.006004 434.043915,118.178856 436.569427,127.718231 
	C437.435913,130.991150 436.076477,132.900757 432.561707,132.967987 
	C430.063019,133.015793 427.552704,132.867569 425.066284,133.055023 
	C420.904938,133.368759 418.396576,131.651764 416.335388,127.935722 
	C409.662689,115.905556 398.061493,110.836456 385.506226,116.123802 
	C379.334991,118.722664 372.980164,124.017303 369.733002,129.792557 
	C362.402588,142.829971 360.867035,157.292603 368.702667,170.857086 
	C373.705627,179.517792 380.313049,187.126770 391.682861,188.106949 
	C403.977295,189.166824 413.009430,184.113297 418.042389,172.788300 
	C420.750854,166.693832 428.719574,163.494446 434.621918,166.566360 
	C435.858215,167.209778 436.961945,170.011749 436.610626,171.448303 
	C435.513306,175.935837 433.690033,180.245865 431.968018,184.951752 
z"/>
<path fill="#101010" opacity="1.000000" stroke="none" 
	d="
M593.010071,207.011856 
	C591.313049,217.610184 585.424561,224.619888 575.025146,227.471420 
	C563.537354,230.621368 552.046631,231.642792 540.930908,225.982788 
	C534.735291,222.828049 531.156616,217.664154 529.715698,210.889755 
	C529.036011,207.694534 530.071228,206.113403 533.397949,206.008286 
	C539.096924,205.828186 544.416199,205.294128 547.545837,212.226852 
	C549.790039,217.198074 561.861938,218.544998 568.326111,215.591248 
	C575.867249,212.145386 579.533142,200.595581 575.373901,192.722336 
	C574.523926,193.094711 573.551880,193.333176 572.801025,193.876907 
	C553.977417,207.507538 530.209473,197.270996 527.000732,174.234375 
	C525.249023,161.657822 525.846985,149.540604 533.638855,138.897446 
	C542.112732,127.322800 559.594238,124.390762 571.782898,132.161545 
	C573.560425,133.294754 575.432800,134.279129 577.685120,135.576508 
	C579.957153,127.580887 586.148865,130.536789 591.524658,130.442764 
	C591.993652,153.669769 591.964478,176.425064 592.044739,199.179962 
	C592.053894,201.791687 592.673523,204.401276 593.010071,207.011856 
M573.919189,179.307785 
	C574.806335,177.948029 576.101562,176.700974 576.513306,175.209946 
	C578.877991,166.646011 578.113586,158.037094 575.893799,149.615616 
	C574.399536,143.946472 569.358032,140.597519 563.551697,140.488266 
	C554.358154,140.315262 546.104492,145.278885 543.787415,154.173828 
	C542.253967,160.060730 542.048767,166.740265 543.111572,172.734665 
	C544.235474,179.073044 548.504639,184.255951 555.558716,185.485794 
	C562.364746,186.672379 568.897156,186.268005 573.919189,179.307785 
z"/>
<path fill="#101010" opacity="1.000000" stroke="none" 
	d="
M485.439026,128.397415 
	C493.165436,129.619797 500.306305,131.291595 505.684875,136.807266 
	C515.191895,146.556656 517.468445,158.716156 516.637573,171.722107 
	C516.459839,174.504166 515.690186,177.317337 514.775757,179.972397 
	C508.004822,199.631516 486.073425,208.799423 466.417023,200.068268 
	C462.260437,198.221970 457.174713,196.437103 454.788177,193.032135 
	C448.613983,184.223068 444.879425,174.124817 446.269897,163.013016 
	C446.904327,157.942871 447.831146,152.734680 449.721344,148.029373 
	C455.173920,134.456253 469.313965,126.811760 485.439026,128.397415 
M472.931671,143.194565 
	C458.777679,150.133270 457.547821,173.864227 468.198547,184.621902 
	C477.243805,193.757996 491.577515,191.982437 497.976685,180.832840 
	C502.362610,173.190994 503.013824,165.126526 500.361786,156.723969 
	C496.203217,143.548309 486.790161,138.636459 472.931671,143.194565 
z"/>
<path fill="#111011" opacity="1.000000" stroke="none" 
	d="
M720.002930,169.990479 
	C719.521240,171.295654 718.439453,172.710999 718.655518,173.888077 
	C720.026978,181.358841 723.555420,187.480988 731.197693,189.928207 
	C738.218567,192.176392 745.286926,191.800461 750.826721,186.441040 
	C754.722839,182.671738 758.993591,181.687485 764.003784,182.031937 
	C768.567566,182.345718 769.466431,183.749329 767.053345,187.640411 
	C762.233643,195.412109 755.035645,200.099609 746.248413,201.993759 
	C733.962280,204.642120 722.397217,203.280457 713.020142,193.866409 
	C705.637329,186.454468 703.347412,176.875366 703.136414,166.939453 
	C702.946777,158.004288 705.343262,149.473816 710.406372,141.891724 
	C717.867065,130.719147 728.766418,127.025307 741.505310,128.305099 
	C761.765625,130.340530 770.492859,149.943405 770.058838,164.170639 
	C769.931763,168.336945 767.505371,169.027695 764.114624,169.018646 
	C751.963196,168.986191 739.811462,168.995026 727.660278,169.071014 
	C725.352905,169.085434 723.047852,169.477188 720.368652,169.849518 
	C719.995605,170.004166 720.002991,169.990494 720.002930,169.990479 
M728.626465,159.960358 
	C735.788391,159.945633 742.950623,159.960480 750.112183,159.903168 
	C753.476196,159.876251 755.128479,158.421494 754.052368,154.836334 
	C751.902954,147.675659 747.763672,142.186417 740.283691,140.376160 
	C732.850830,138.577286 726.516846,141.552490 722.171570,148.811584 
	C720.558777,151.505905 720.229065,154.968323 719.314209,158.080429 
	C722.101624,158.706726 724.888977,159.333023 728.626465,159.960358 
z"/>
<path fill="#111011" opacity="1.000000" stroke="none" 
	d="
M978.466553,198.614197 
	C966.538208,204.240082 954.585144,204.446320 942.587402,200.619476 
	C935.391357,198.324219 930.307678,193.477859 927.999939,186.024918 
	C926.772827,182.062088 927.792053,180.441956 932.229065,179.876389 
	C939.064514,179.005127 943.490967,182.167633 947.655518,186.815109 
	C952.562195,192.290833 965.220459,192.529694 970.500488,187.446762 
	C974.161865,183.922104 973.675598,177.884964 968.929077,175.697876 
	C964.303955,173.566757 959.191284,172.458191 954.245239,171.069565 
	C949.279968,169.675552 944.091797,168.928818 939.289551,167.129196 
	C925.903687,162.112946 923.359497,144.382965 934.538025,135.350830 
	C947.106873,125.195374 969.870850,125.377525 981.987244,136.159134 
	C984.276245,138.196014 985.503296,141.756058 986.383911,144.851242 
	C986.659241,145.818909 984.406921,148.392960 982.929688,148.782318 
	C980.096069,149.529221 976.973511,149.466949 974.003479,149.263687 
	C972.860657,149.185440 971.481628,148.030014 970.764832,146.984955 
	C966.028320,140.079544 955.234070,137.716644 948.048523,142.152939 
	C943.101440,145.207230 943.000977,151.237167 948.377441,154.245163 
	C951.759827,156.137497 955.879456,156.769226 959.718811,157.773026 
	C964.387634,158.993652 969.160034,159.833542 973.797607,161.154343 
	C982.432556,163.613647 988.813416,168.352783 989.678040,178.141388 
	C990.484863,187.275116 986.571228,193.893539 978.466553,198.614197 
z"/>
<path fill="#111011" opacity="1.000000" stroke="none" 
	d="
M914.150146,130.675049 
	C915.018066,132.749725 915.941345,134.608826 915.951721,136.473038 
	C916.059692,155.796432 916.028442,175.120667 916.014343,194.444656 
	C916.012146,197.485443 916.213074,200.538849 911.810242,200.996567 
	C905.221985,201.681519 903.400024,200.855652 901.805725,196.109329 
	C901.432373,194.997818 900.508606,193.810318 899.508789,193.287354 
	C899.053589,193.049240 897.591003,194.173553 896.934387,194.968231 
	C886.533752,207.554840 863.560852,205.814835 856.224915,191.236145 
	C853.604675,186.028885 852.963501,179.469040 852.755066,173.480087 
	C852.338501,161.511124 852.751526,149.507706 853.051147,137.524246 
	C853.108826,135.218628 853.802429,131.232788 854.915771,130.962845 
	C858.476135,130.099503 862.423828,130.281006 866.100037,130.848679 
	C866.982971,130.985016 867.896790,134.164658 867.937012,135.963928 
	C868.130737,144.622162 867.889099,153.290283 868.091370,161.948135 
	C868.199829,166.591385 868.617676,171.267242 869.388550,175.845428 
	C870.419373,181.966507 873.709412,186.270477 879.769592,188.813461 
	C889.254395,192.793457 897.289856,185.585327 899.801392,177.953476 
	C900.668457,175.318893 900.874695,172.378540 900.905518,169.572601 
	C901.026245,158.579208 900.994507,147.583450 900.915955,136.589310 
	C900.904114,134.935593 900.342163,133.285797 899.816345,130.461853 
	C904.203491,130.461853 908.992676,130.461853 914.150146,130.675049 
z"/>
<path fill="#111011" opacity="1.000000" stroke="none" 
	d="
M819.571899,192.436066 
	C817.263916,188.937546 815.244690,185.677826 813.008057,182.574860 
	C809.773682,178.087814 807.503418,178.091888 804.214600,182.714081 
	C801.127625,187.052536 798.066956,191.442276 795.429688,196.057968 
	C793.235229,199.898727 790.305786,201.359055 786.015198,201.048325 
	C782.588013,200.800125 779.128601,200.998215 774.482483,200.998215 
	C775.930969,198.265396 776.658020,196.510147 777.708374,194.976318 
	C783.071594,187.144974 788.186096,179.109589 794.043152,171.661102 
	C798.553894,165.924759 797.347595,161.495605 793.850037,156.347626 
	C789.171448,149.461365 784.337036,142.681122 779.615234,135.823898 
	C778.628601,134.391129 777.840637,132.821579 776.341309,130.253311 
	C782.738464,130.253311 787.978394,130.047546 793.178711,130.410141 
	C794.355286,130.492188 795.620178,132.406525 796.455750,133.723953 
	C799.486633,138.502686 802.245667,143.455017 805.313721,148.208557 
	C807.807190,152.071930 809.377808,152.017380 811.815613,148.127090 
	C814.555725,143.754395 817.311462,139.374908 819.732056,134.823715 
	C821.714600,131.096085 824.509094,129.635529 828.644958,129.910492 
	C832.214600,130.147827 835.812561,129.959778 841.095581,129.959778 
	C837.656921,135.113480 835.239624,138.949310 832.608093,142.632050 
	C828.365051,148.570007 823.697693,154.230087 819.839539,160.401367 
	C818.769714,162.112625 819.021912,165.829681 820.210754,167.576065 
	C826.385986,176.647781 833.094849,185.354721 839.527893,194.253799 
	C840.648254,195.803696 841.337891,197.665039 842.222473,199.374832 
	C833.591980,203.912750 824.738647,201.148636 819.571899,192.436066 
z"/>
<path fill="#111011" opacity="1.000000" stroke="none" 
	d="
M691.011353,196.536163 
	C690.669739,194.393341 690.050171,191.781998 690.043945,189.169159 
	C689.974609,160.091614 690.000122,131.013824 690.000000,101.467293 
	C690.522522,102.134216 691.044983,103.269966 691.766907,105.118225 
	C691.921631,107.563133 691.876892,109.295525 691.832153,111.027916 
	C691.568726,113.652000 691.082947,116.275513 691.076294,118.900238 
	C691.011292,144.622360 691.026123,170.344696 691.011353,196.536163 
z"/>
<path fill="#111011" opacity="1.000000" stroke="none" 
	d="
M593.018799,206.541962 
	C592.673523,204.401276 592.053894,201.791687 592.044739,199.179962 
	C591.964478,176.425064 591.993652,153.669769 591.985840,130.443146 
	C592.341248,132.404861 593.005920,134.837128 593.013184,137.271347 
	C593.081970,160.204742 593.038574,183.138458 593.018799,206.541962 
z"/>
<path fill="#7B7A7A" opacity="1.000000" stroke="none" 
	d="
M594.853271,171.999771 
	C594.850037,182.643417 594.850037,192.787048 594.850037,202.930679 
	C594.662048,202.930695 594.474121,202.930695 594.286133,202.930695 
	C594.286133,178.372284 594.286133,153.813858 594.286133,129.255432 
	C594.476257,129.253632 594.666321,129.251846 594.856445,129.250046 
	C594.856445,143.333282 594.856445,157.416519 594.853271,171.999771 
z"/>
<path fill="#7B7A7A" opacity="1.000000" stroke="none" 
	d="
M691.875244,111.493088 
	C691.876892,109.295525 691.921631,107.563133 691.901611,105.401672 
	C691.935791,103.517601 692.034729,102.062614 692.133728,100.607628 
	C692.325928,100.614777 692.518188,100.621918 692.710388,100.629066 
	C692.710388,117.951988 692.710388,135.274902 692.710388,152.597824 
	C692.446411,152.600342 692.182434,152.602844 691.918457,152.605347 
	C691.918457,139.056320 691.918457,125.507286 691.875244,111.493088 
z"/>
<path fill="#111011" opacity="1.000000" stroke="none" 
	d="
M719.988525,170.011246 
	C735.766174,170.018326 751.550903,170.018326 767.335571,170.018326 
	C767.337830,170.349854 767.340088,170.681381 767.342346,171.012909 
	C756.454895,171.012909 745.566833,171.079803 734.680298,170.981445 
	C730.037659,170.939499 725.398071,170.552383 720.380066,170.156311 
	C720.002991,169.990494 719.995605,170.004166 719.988525,170.011246 
z"/>
<path fill="#111011" opacity="1.000000" stroke="none" 
	d="
M299.090698,228.947876 
	C308.836273,228.946915 318.098602,228.946915 327.360962,228.946915 
	C327.364105,229.189163 327.367218,229.431396 327.370331,229.673645 
	C315.199097,229.673645 303.027863,229.673645 290.856659,229.673645 
	C290.835236,229.432037 290.813812,229.190430 290.792419,228.948822 
	C293.397430,228.948822 296.002441,228.948822 299.090698,228.947876 
z"/>
<path fill="#111011" opacity="1.000000" stroke="none" 
	d="
M852.076843,154.856323 
	C852.072266,157.612701 852.072266,159.897369 852.072266,162.182022 
	C851.789978,162.181808 851.507690,162.181580 851.225403,162.181366 
	C851.225403,152.294174 851.225403,142.406982 851.225403,132.519791 
	C851.510742,132.510956 851.796082,132.502121 852.081421,132.493286 
	C852.081421,139.790390 852.081421,147.087479 852.076843,154.856323 
z"/>
<path fill="#111011" opacity="1.000000" stroke="none" 
	d="
M690.175171,200.861160 
	C690.204834,200.775650 690.431091,200.543137 690.839722,200.148407 
	C690.826233,200.247025 690.609436,200.489700 690.175171,200.861160 
z"/>
<path fill="#000000" opacity="1.000000" stroke="none" 
	d="
M573.638489,179.546326 
	C568.897156,186.268005 562.364746,186.672379 555.558716,185.485794 
	C548.504639,184.255951 544.235474,179.073044 543.111572,172.734665 
	C542.048767,166.740265 542.253967,160.060730 543.787415,154.173828 
	C546.104492,145.278885 554.358154,140.315262 563.551697,140.488266 
	C569.358032,140.597519 574.399536,143.946472 575.893799,149.615616 
	C578.113586,158.037094 578.877991,166.646011 576.513306,175.209946 
	C576.101562,176.700974 574.806335,177.948029 573.638489,179.546326 
z"/>
<path fill="#000000" opacity="1.000000" stroke="none" 
	d="
M473.276917,143.030792 
	C486.790161,138.636459 496.203217,143.548309 500.361786,156.723969 
	C503.013824,165.126526 502.362610,173.190994 497.976685,180.832840 
	C491.577515,191.982437 477.243805,193.757996 468.198547,184.621902 
	C457.547821,173.864227 458.777679,150.133270 473.276917,143.030792 
z"/>
<path fill="#000000" opacity="1.000000" stroke="none" 
	d="
M728.151428,159.959839 
	C724.888977,159.333023 722.101624,158.706726 719.314209,158.080444 
	C720.229065,154.968323 720.558777,151.505905 722.171570,148.811584 
	C726.516846,141.552490 732.850830,138.577286 740.283691,140.376160 
	C747.763672,142.186417 751.902954,147.675659 754.052368,154.836334 
	C755.128479,158.421494 753.476196,159.876251 750.112183,159.903168 
	C742.950623,159.960480 735.788391,159.945633 728.151428,159.959839 
z"/>
</svg>